<?xml version="1.0" standalone="no"?>
<svg xmlns:xlink="http://www.w3.org/1999/xlink" id="wave" style="transform:rotate(0deg); transition: 0.3s" viewBox="0 0 1440 150" version="1.1" xmlns="http://www.w3.org/2000/svg"><defs><linearGradient id="sw-gradient-0" x1="0" x2="0" y1="1" y2="0"><stop stop-color="rgba(255, 241.856, 237.634, 1)" offset="0%"/><stop stop-color="rgba(255, 249, 234, 1)" offset="100%"/></linearGradient></defs><path style="transform:translate(0, 0px); opacity:1" fill="url(#sw-gradient-0)" d="M0,120L26.7,115C53.3,110,107,100,160,85C213.3,70,267,50,320,42.5C373.3,35,427,40,480,55C533.3,70,587,95,640,110C693.3,125,747,130,800,122.5C853.3,115,907,95,960,92.5C1013.3,90,1067,105,1120,100C1173.3,95,1227,70,1280,72.5C1333.3,75,1387,105,1440,97.5C1493.3,90,1547,45,1600,42.5C1653.3,40,1707,80,1760,100C1813.3,120,1867,120,1920,110C1973.3,100,2027,80,2080,80C2133.3,80,2187,100,2240,110C2293.3,120,2347,120,2400,102.5C2453.3,85,2507,50,2560,32.5C2613.3,15,2667,15,2720,32.5C2773.3,50,2827,85,2880,82.5C2933.3,80,2987,40,3040,40C3093.3,40,3147,80,3200,95C3253.3,110,3307,100,3360,92.5C3413.3,85,3467,80,3520,85C3573.3,90,3627,105,3680,112.5C3733.3,120,3787,120,3813,120L3840,120L3840,150L3813.3,150C3786.7,150,3733,150,3680,150C3626.7,150,3573,150,3520,150C3466.7,150,3413,150,3360,150C3306.7,150,3253,150,3200,150C3146.7,150,3093,150,3040,150C2986.7,150,2933,150,2880,150C2826.7,150,2773,150,2720,150C2666.7,150,2613,150,2560,150C2506.7,150,2453,150,2400,150C2346.7,150,2293,150,2240,150C2186.7,150,2133,150,2080,150C2026.7,150,1973,150,1920,150C1866.7,150,1813,150,1760,150C1706.7,150,1653,150,1600,150C1546.7,150,1493,150,1440,150C1386.7,150,1333,150,1280,150C1226.7,150,1173,150,1120,150C1066.7,150,1013,150,960,150C906.7,150,853,150,800,150C746.7,150,693,150,640,150C586.7,150,533,150,480,150C426.7,150,373,150,320,150C266.7,150,213,150,160,150C106.7,150,53,150,27,150L0,150Z"/></svg>